<?xml version="1.0" encoding="UTF-8"?>
<svg width="600" height="400" viewBox="0 0 600 400" fill="none" xmlns="http://www.w3.org/2000/svg">
    <!-- Background Elements -->
    <circle cx="300" cy="200" r="180" fill="url(#gradient1)" fill-opacity="0.1"/>
    <circle cx="300" cy="200" r="140" fill="url(#gradient2)" fill-opacity="0.15"/>
    
    <!-- Research Paper -->
    <g transform="translate(160, 120)">
        <rect x="0" y="0" width="120" height="160" rx="8" fill="#1E293B" stroke="url(#gradient3)" stroke-width="2"/>
        <rect x="20" y="20" width="80" height="8" rx="4" fill="#64748B"/>
        <rect x="20" y="40" width="60" height="8" rx="4" fill="#64748B"/>
        <rect x="20" y="70" width="80" height="4" rx="2" fill="#475569"/>
        <rect x="20" y="85" width="80" height="4" rx="2" fill="#475569"/>
        <rect x="20" y="100" width="70" height="4" rx="2" fill="#475569"/>
        <rect x="20" y="115" width="80" height="4" rx="2" fill="#475569"/>
        <rect x="20" y="130" width="60" height="4" rx="2" fill="#475569"/>
    </g>

    <!-- Transform Arrow -->
    <g transform="translate(270, 180)">
        <path d="M0 20 L60 20 M45 5 L60 20 L45 35" stroke="url(#gradient3)" stroke-width="3" stroke-linecap="round" stroke-linejoin="round"/>
    </g>

    <!-- Podcast Visualization -->
    <g transform="translate(320, 120)">
        <rect x="0" y="0" width="120" height="160" rx="8" fill="#1E293B" stroke="url(#gradient3)" stroke-width="2"/>
        <!-- Waveform -->
        <g transform="translate(20, 60)">
            <path d="M0 20 Q10 0 20 20 Q30 40 40 20 Q50 0 60 20 Q70 40 80 20" stroke="url(#gradient4)" stroke-width="3" stroke-linecap="round"/>
            <path d="M0 40 Q10 20 20 40 Q30 60 40 40 Q50 20 60 40 Q70 60 80 40" stroke="url(#gradient4)" stroke-width="3" stroke-linecap="round" opacity="0.7"/>
            <path d="M0 60 Q10 40 20 60 Q30 80 40 60 Q50 40 60 60 Q70 80 80 60" stroke="url(#gradient4)" stroke-width="3" stroke-linecap="round" opacity="0.4"/>
        </g>
        <!-- Play Button -->
        <circle cx="60" cy="30" r="15" fill="url(#gradient4)"/>
        <path d="M55 23 L70 30 L55 37 Z" fill="white"/>
    </g>

    <!-- Gradients -->
    <defs>
        <linearGradient id="gradient1" x1="0%" y1="0%" x2="100%" y2="100%">
            <stop offset="0%" stop-color="#38BDF8"/>
            <stop offset="100%" stop-color="#6366F1"/>
        </linearGradient>
        <linearGradient id="gradient2" x1="100%" y1="0%" x2="0%" y2="100%">
            <stop offset="0%" stop-color="#38BDF8"/>
            <stop offset="100%" stop-color="#6366F1"/>
        </linearGradient>
        <linearGradient id="gradient3" x1="0%" y1="0%" x2="100%" y2="0%">
            <stop offset="0%" stop-color="#38BDF8"/>
            <stop offset="100%" stop-color="#6366F1"/>
        </linearGradient>
        <linearGradient id="gradient4" x1="0%" y1="0%" x2="100%" y2="0%">
            <stop offset="0%" stop-color="#38BDF8"/>
            <stop offset="100%" stop-color="#6366F1"/>
        </linearGradient>
    </defs>
</svg> 